HIERARCHY
ROOT Hips
{
	OFFSET 0.000000 0.000000 0.000000
	CHANNELS 6 Xposition Yposition Zposition Zrotation Yrotation Xrotation 
	JOINT LeftUpLeg_virtual
	{
		OFFSET 0.000000 0.000000 0.000000
		CHANNELS 3 Zrotation Yrotation Xrotation
		JOINT LeftUpLeg
		{
			OFFSET 10.205400 -3.823500 0.155100
			CHANNELS 3 Zrotation Yrotation Xrotation
			JOINT LeftLeg
			{
				OFFSET 0.708757 -12.982077 0.567790
				CHANNELS 3 Zrotation Yrotation Xrotation
				JOINT LeftFoot
				{
					OFFSET -0.708756 -10.717838 -2.184338
					CHANNELS 3 Zrotation Yrotation Xrotation
					JOINT LeftToeBase
					{
						OFFSET 0.108149 -7.191104 7.560241
						CHANNELS 3 Zrotation Yrotation Xrotation
						End Site
						{
							OFFSET 0.000000 0.000000 0.000000
						}
					}
				}
			}
		}
	}
	JOINT RightUpLeg_virtual
	{
		OFFSET 0.000000 0.000000 0.000000
		CHANNELS 3 Zrotation Yrotation Xrotation
		JOINT RightUpLeg
		{
			OFFSET -10.205400 -3.823500 0.005500
			CHANNELS 3 Zrotation Yrotation Xrotation
			JOINT RightLeg
			{
				OFFSET -0.708756 -12.982134 0.610632
				CHANNELS 3 Zrotation Yrotation Xrotation
				JOINT RightFoot
				{
					OFFSET 0.708754 -10.717769 -1.945823
					CHANNELS 3 Zrotation Yrotation Xrotation
					JOINT RightToeBase
					{
						OFFSET -0.108140 -7.191069 7.372968
						CHANNELS 3 Zrotation Yrotation Xrotation
						End Site
						{
							OFFSET 0.000000 0.000000 0.000000
						}
					}
				}
			}
		}
	}
	JOINT Spine_virtual
	{
		OFFSET 0.000000 0.000000 0.000000
		CHANNELS 3 Zrotation Yrotation Xrotation
		JOINT Spine
		{
			OFFSET 0.000000 6.876099 0.125700
			CHANNELS 3 Zrotation Yrotation Xrotation
			JOINT Spine1
			{
				OFFSET 0.000000 8.022060 0.146608
				CHANNELS 3 Zrotation Yrotation Xrotation
				JOINT Spine2
				{
					OFFSET 0.000000 9.168068 0.167552
					CHANNELS 3 Zrotation Yrotation Xrotation
					JOINT Neck_virtual
					{
						OFFSET 0.000000 0.000000 0.000000
						CHANNELS 3 Zrotation Yrotation Xrotation
						JOINT Neck
						{
							OFFSET 0.000000 10.314075 0.188496
							CHANNELS 3 Zrotation Yrotation Xrotation
							JOINT Head
							{
								OFFSET 0.000000 7.643700 -2.377400
								CHANNELS 3 Zrotation Yrotation Xrotation
								End Site
								{
									OFFSET 0.000000 0.000000 0.000000
								}
							}
						}
					}
					JOINT LeftShoulder_virtual
					{
						OFFSET 0.000000 0.000000 0.000000
						CHANNELS 3 Zrotation Yrotation Xrotation
						JOINT LeftShoulder
						{
							OFFSET 4.392200 8.824978 0.174984
							CHANNELS 3 Zrotation Yrotation Xrotation
							JOINT LeftArm
							{
								OFFSET 8.771219 -2.981674 -0.026999
								CHANNELS 3 Zrotation Yrotation Xrotation
								JOINT LeftForeArm
								{
									OFFSET 8.512804 0.000000 -0.000000
									CHANNELS 3 Zrotation Yrotation Xrotation
									JOINT LeftHand
									{
										OFFSET 18.484802 0.000000 -0.000000
										CHANNELS 3 Zrotation Yrotation Xrotation
										End Site
										{
											OFFSET 0.000000 0.000000 0.000000
										}
									}
								}
							}
						}
					}
					JOINT RightShoulder_virtual
					{
						OFFSET 0.000000 0.000000 0.000000
						CHANNELS 3 Zrotation Yrotation Xrotation
						JOINT RightShoulder
						{
							OFFSET -4.392200 8.824993 0.141379
							CHANNELS 3 Zrotation Yrotation Xrotation
							JOINT RightArm
							{
								OFFSET -8.771282 -2.981682 -0.094208
								CHANNELS 3 Zrotation Yrotation Xrotation
								JOINT RightForeArm
								{
									OFFSET -8.494598 0.000000 0.000000
									CHANNELS 3 Zrotation Yrotation Xrotation
									JOINT RightHand
									{
										OFFSET -18.483803 0.000000 0.000001
										CHANNELS 3 Zrotation Yrotation Xrotation
										End Site
										{
											OFFSET 0.000000 0.000000 0.000000
										}
									}
								}
							}
						}
					}
				}
			}
		}
	}
}
MOTION
Frames: 10
Frame Time: 0.033333
0.191717 36.086655 13.840635 -179.993940 4.065778 -179.953546 -2.795682 -3.767017 9.623284 -12.349430 0.682958 -14.595704 16.342708 4.564195 19.195881 2.052610 -0.945596 3.416450 0.000000 0.000000 0.000000 1.323776 -1.212422 8.061975 -0.219109 0.604304 -15.511817 -7.188771 1.230515 18.403938 6.995078 2.872847 8.015766 0.000000 0.000000 0.000000 1.062877 0.395917 -2.454545 -3.873535 1.628933 -6.895510 0.494391 -3.412411 3.679942 0.027370 0.016956 0.027623 0.190766 -1.816973 6.149566 0.189488 1.807119 15.282009 0.000000 0.000000 0.000000 1.713453 -1.045795 3.212943 -9.532592 1.162133 -6.028678 -5.307107 10.582976 -38.714653 -0.784285 -43.070524 -2.095631 0.000000 0.000000 0.000000 -1.799895 -0.326179 2.756839 17.882909 -5.692648 -15.341508 12.320746 -9.709687 -47.576212 0.200994 28.524554 1.264655 0.000000 0.000000 0.000000 
0.205971 36.067322 13.817584 -179.983517 4.037946 -179.858934 -2.790879 -4.006715 9.793550 -12.161486 0.316381 -14.554423 16.591706 4.136933 19.432489 2.113154 -0.845305 2.843224 0.000000 0.000000 0.000000 1.310969 -1.184316 8.166459 -0.091164 0.608854 -15.577121 -7.170668 1.538719 18.597039 7.195458 3.039376 7.936003 0.000000 0.000000 0.000000 1.018084 0.402002 -2.500902 -3.835476 1.611978 -7.026593 0.478207 -3.430639 3.643631 0.018784 -0.019456 0.009969 0.165509 -1.801485 6.217143 0.194526 1.732176 15.296277 0.000000 0.000000 0.000000 1.690476 -1.033187 3.204372 -9.441132 1.151503 -5.915353 -5.289641 10.694091 -38.863807 -0.816169 -43.016473 -2.080945 0.000000 0.000000 0.000000 -1.829107 -0.235004 2.754202 18.025250 -5.710802 -15.331799 12.096237 -9.488122 -47.504440 0.167475 28.648757 1.203974 0.000000 0.000000 0.000000 
0.215747 36.044823 13.753566 -179.985334 4.246538 -179.904341 -2.819564 -3.826109 10.014949 -12.181841 0.356717 -14.660646 16.659767 4.072780 19.642118 2.092171 -0.840757 2.650113 0.000000 0.000000 0.000000 1.228284 -1.043471 8.360889 0.017991 0.733576 -15.626047 -7.290791 1.714277 18.657300 7.103909 3.010247 7.736357 0.000000 0.000000 0.000000 0.929477 0.475980 -2.480914 -3.806087 1.600317 -7.105193 0.471723 -3.385831 3.638769 0.008484 -0.010188 0.020358 0.174412 -1.764073 6.236767 0.243398 1.650922 15.349486 0.000000 0.000000 0.000000 1.705482 -0.963784 3.186255 -9.333443 1.163922 -6.002620 -5.278463 10.596180 -38.908374 -0.894428 -42.688074 -2.023641 0.000000 0.000000 0.000000 -1.812213 -0.170776 2.760468 18.194869 -5.554114 -15.245460 11.817434 -9.202724 -47.472615 0.215987 28.814693 1.268441 0.000000 0.000000 0.000000 
0.226088 36.024147 13.674229 179.928151 4.374146 -179.873824 -2.964024 -3.817709 10.147138 -12.196600 0.403528 -14.787798 16.826880 3.959040 19.952456 2.080594 -0.831153 2.346505 0.000000 0.000000 0.000000 1.092110 -0.988652 8.518703 0.150826 0.922476 -15.687510 -7.314783 1.835582 18.598542 6.963467 2.907995 7.590661 0.000000 0.000000 0.000000 0.791684 0.526730 -2.544904 -3.785573 1.534013 -7.210741 0.475723 -3.322191 3.648430 -0.008071 0.017388 0.022300 0.238629 -1.787537 6.284828 0.319913 1.532144 15.454440 0.000000 0.000000 0.000000 1.793751 -0.987983 3.254171 -9.247698 1.037449 -6.039713 -5.347987 10.529866 -38.993325 -0.914203 -42.287870 -2.014790 0.000000 0.000000 0.000000 -1.724758 -0.205370 2.754447 18.474203 -5.482676 -15.118270 11.382300 -8.811049 -47.342913 0.261368 28.774381 1.389326 0.000000 0.000000 0.000000 
0.229614 36.003571 13.593653 179.901773 4.559500 -179.832597 -3.047554 -3.803535 10.187987 -12.222718 0.475826 -14.821796 16.943196 3.859821 20.247177 2.105703 -0.787425 2.053885 0.000000 0.000000 0.000000 0.986877 -0.896039 8.607237 0.178976 1.372020 -15.627321 -7.336909 1.743685 18.611372 6.937353 2.839387 7.419580 0.000000 0.000000 0.000000 0.691756 0.582908 -2.615696 -3.693225 1.426821 -7.332711 0.514895 -3.288293 3.659245 0.007207 0.016047 0.017474 0.273068 -1.744995 6.363057 0.432714 1.413037 15.625366 0.000000 0.000000 0.000000 1.806261 -0.931921 3.331980 -9.236525 0.961499 -6.049138 -5.490072 10.517423 -39.106409 -1.032165 -41.981136 -1.856397 0.000000 0.000000 0.000000 -1.683540 -0.179637 2.870848 18.730614 -5.355732 -15.110434 11.082815 -8.425199 -47.134545 0.333642 28.770850 1.584974 0.000000 0.000000 0.000000 
0.228200 35.981373 13.523572 -179.999937 4.680975 -179.888837 -2.969978 -3.811569 10.175478 -12.265206 0.502761 -14.709518 16.996714 3.747415 20.441284 2.133557 -0.743591 1.917139 0.000000 0.000000 0.000000 0.983431 -0.847984 8.637155 0.329483 1.337457 -15.442639 -7.477928 1.694686 18.566384 7.001336 2.854048 7.333672 0.000000 0.000000 0.000000 0.672750 0.650637 -2.623016 -3.531699 1.341602 -7.447112 0.570537 -3.243401 3.690561 0.016547 0.024112 0.044840 0.294628 -1.672480 6.389131 0.536686 1.277633 15.831446 0.000000 0.000000 0.000000 1.776880 -0.920369 3.369057 -9.267078 0.860954 -5.979818 -5.739266 10.551888 -39.236606 -1.066250 -41.852811 -1.784147 0.000000 0.000000 0.000000 -1.694859 -0.150381 2.890556 18.983608 -5.302680 -14.932402 10.766178 -8.206372 -47.039752 0.347124 28.700219 1.680575 0.000000 0.000000 0.000000 
0.217091 35.966133 13.452454 179.896377 4.928445 -179.851462 -3.124173 -3.686620 10.121551 -12.353986 0.536476 -14.634008 17.147134 3.678416 20.552613 2.175331 -0.701904 1.834500 0.000000 0.000000 0.000000 0.771514 -0.588745 8.576917 0.429571 1.459068 -15.263215 -7.431662 1.840200 18.486455 6.973862 2.780611 7.243832 0.000000 0.000000 0.000000 0.584858 0.662943 -2.709994 -3.409818 1.300687 -7.595770 0.571346 -3.176928 3.709933 -0.004498 0.043283 0.046169 0.343444 -1.627224 6.487652 0.596061 1.109716 16.060831 0.000000 0.000000 0.000000 1.803554 -0.829725 3.425409 -9.356807 0.820083 -5.786479 -6.023249 10.747526 -39.194945 -1.055071 -41.998854 -1.739500 0.000000 0.000000 0.000000 -1.638428 -0.033380 3.012029 19.222065 -5.132547 -14.769917 10.570280 -8.161925 -47.022082 0.469822 28.627452 1.932093 0.000000 0.000000 0.000000 
0.192543 35.957542 13.374147 179.980184 5.008687 -179.814620 -3.088536 -3.696692 10.106972 -12.375939 0.551124 -14.558786 17.222163 3.831511 20.753135 2.107928 -0.727657 1.733345 0.000000 0.000000 0.000000 0.825572 -0.518270 8.533215 0.461696 1.270996 -15.053575 -7.647761 1.711339 18.409740 7.266321 2.812018 7.241157 0.000000 0.000000 0.000000 0.592465 0.607437 -2.853481 -3.184563 1.281720 -7.702327 0.613217 -3.156601 3.726561 0.023775 0.005528 0.036630 0.269677 -1.459169 6.545894 0.560265 0.901045 16.259014 0.000000 0.000000 0.000000 1.716907 -0.652471 3.472468 -9.450975 0.800454 -5.701252 -6.330935 10.976333 -39.006363 -1.152873 -42.297289 -1.478973 0.000000 0.000000 0.000000 -1.720953 0.114718 3.077110 19.374306 -4.980546 -14.649683 10.534699 -8.086216 -46.969585 0.536136 28.509239 2.148776 0.000000 0.000000 0.000000 
0.157931 35.951653 13.290653 179.994363 4.949441 -179.765470 -3.115582 -3.815051 10.137911 -12.421499 0.573425 -14.513764 17.334426 3.986428 20.968006 2.042504 -0.728588 1.751785 0.000000 0.000000 0.000000 0.779330 -0.572503 8.509060 0.440942 1.344763 -14.882545 -7.630278 1.855197 18.393230 7.364680 2.740037 7.150468 0.000000 0.000000 0.000000 0.582714 0.535283 -3.048315 -2.999949 1.364460 -7.772177 0.607828 -3.072107 3.726697 0.010249 0.022928 0.026695 0.262592 -1.385248 6.622491 0.491090 0.740509 16.425690 0.000000 0.000000 0.000000 1.695970 -0.607535 3.606127 -9.557083 0.630134 -5.563958 -6.654771 11.139274 -38.741772 -1.153635 -42.584778 -1.281353 0.000000 0.000000 0.000000 -1.732283 0.144709 3.110805 19.410038 -4.921722 -14.316939 10.703672 -8.144353 -47.089079 0.595560 28.309749 2.286932 0.000000 0.000000 0.000000 
0.114121 35.950813 13.198680 179.959666 4.813180 -179.750676 -3.228892 -3.929667 10.192932 -12.483320 0.494605 -14.492833 17.518677 4.226619 21.186922 1.906283 -0.771190 1.821762 0.000000 0.000000 0.000000 0.743322 -0.697875 8.524885 0.389435 1.266580 -14.764205 -7.712329 1.863030 18.483508 7.541131 2.705097 7.082546 0.000000 0.000000 0.000000 0.552644 0.424751 -3.246452 -2.830853 1.456150 -7.743039 0.580142 -3.001808 3.732453 -0.044009 0.021242 0.027059 0.326387 -1.356844 6.679464 0.328035 0.617681 16.535570 0.000000 0.000000 0.000000 1.758211 -0.537446 3.649027 -9.614895 0.430403 -5.593197 -6.997170 11.285903 -38.515785 -1.285972 -42.902293 -0.925003 0.000000 0.000000 0.000000 -1.673083 0.193381 3.155737 19.245323 -4.740537 -13.921652 10.848424 -8.266087 -47.418390 0.656311 28.063716 2.428239 0.000000 0.000000 0.000000 
